<svg xmlns="http://www.w3.org/2000/svg" xmlns:xlink="http://www.w3.org/1999/xlink" version="1.1" id="Layer_1" x="0px" y="0px" style="enable-background:new 0 0 1080 1080;" xml:space="preserve" viewBox="274.53 480.06 530.94 119.87">
<style type="text/css">
	.st0{fill:#ffffff;}
	.st1{fill:#c49859;}
</style>
<g>
	<g>
		<g>
			<path class="st0" d="M681.16,564.01c-4.79,4.77-10.57,7.16-17.33,7.16s-12.51-2.39-17.26-7.16c-4.75-4.77-7.12-10.54-7.12-17.3     c0-6.76,2.37-12.54,7.12-17.33c4.75-4.8,10.5-7.19,17.26-7.19s12.51,2.39,17.26,7.16s7.15,10.56,7.19,17.36     C688.33,553.47,685.96,559.24,681.16,564.01z M652.97,557.91c2.9,3.08,6.52,4.62,10.86,4.62s7.97-1.53,10.89-4.59     c2.92-3.06,4.38-6.8,4.38-11.23c0-4.43-1.46-8.2-4.38-11.3c-2.92-3.1-6.55-4.66-10.89-4.66c-4.29,0-7.9,1.55-10.82,4.66     c-2.92,3.11-4.38,6.87-4.38,11.3C648.62,551.09,650.07,554.83,652.97,557.91z M659.58,517.32c-0.96,0.96-2.15,1.44-3.56,1.44     c-1.42,0-2.6-0.48-3.56-1.44c-0.96-0.96-1.44-2.12-1.44-3.49c0-1.41,0.48-2.6,1.44-3.56c0.96-0.96,2.14-1.44,3.56-1.44     c1.41,0,2.6,0.48,3.56,1.44c0.96,0.96,1.44,2.15,1.44,3.56C661.02,515.2,660.54,516.36,659.58,517.32z M675.34,517.32     c-0.96,0.96-2.15,1.44-3.56,1.44c-1.42,0-2.6-0.48-3.56-1.44c-0.96-0.96-1.44-2.12-1.44-3.49c0-1.41,0.48-2.6,1.44-3.56     c0.96-0.96,2.15-1.44,3.56-1.44c1.41,0,2.6,0.48,3.56,1.44c0.96,0.96,1.44,2.15,1.44,3.56     C676.78,515.2,676.3,516.36,675.34,517.32z" fill="#000000"/>
			<path class="st0" d="M736.8,564.01c-4.79,4.77-10.57,7.16-17.33,7.16s-12.51-2.39-17.26-7.16c-4.75-4.77-7.12-10.54-7.12-17.3     c0-6.76,2.37-12.54,7.12-17.33c4.75-4.8,10.5-7.19,17.26-7.19s12.51,2.39,17.26,7.16c4.75,4.77,7.15,10.56,7.19,17.36     C743.96,553.47,741.59,559.24,736.8,564.01z M708.61,557.91c2.9,3.08,6.52,4.62,10.86,4.62s7.97-1.53,10.89-4.59     c2.92-3.06,4.38-6.8,4.38-11.23c0-4.43-1.46-8.2-4.38-11.3c-2.92-3.1-6.55-4.66-10.89-4.66c-4.29,0-7.9,1.55-10.82,4.66     c-2.92,3.11-4.38,6.87-4.38,11.3C704.26,551.09,705.71,554.83,708.61,557.91z" fill="#000000"/>
			<path class="st0" d="M750.6,570.62v-47.95h14.8l12.6,41.17l12.6-41.17h14.87v47.95h-8.91v-39.25l-11.99,39.25h-13.15     l-11.92-39.05v39.05H750.6z" fill="#000000"/>
		</g>
		<g>
			<path class="st0" d="M427.98,571.17c-6.71-0.09-13.18-2.28-19.39-6.58v-9.66c7.17,5.07,13.79,7.6,19.87,7.6     c2.51,0,4.5-0.47,5.96-1.4c1.46-0.94,2.19-2.2,2.19-3.8c0-1.64-0.97-3.04-2.91-4.18c-1.94-1.14-5.22-2.28-9.83-3.43     c-5.3-1.28-9.2-3.02-11.71-5.24c-2.51-2.21-3.77-4.99-3.77-8.32c0-4.16,1.67-7.53,5-10.14s7.49-3.9,12.47-3.9     c6.39,0,12.42,1.69,18.08,5.07v9.45c-2.65-1.74-5.63-3.17-8.94-4.32c-3.31-1.14-6.36-1.71-9.15-1.71c-2.42,0-4.41,0.49-5.96,1.47     c-1.55,0.98-2.33,2.3-2.33,3.94c0,0.64,0.13,1.21,0.38,1.71c0.25,0.5,0.72,0.97,1.4,1.4c0.68,0.43,1.32,0.8,1.92,1.1     c0.59,0.3,1.51,0.62,2.74,0.96c1.23,0.34,2.23,0.62,2.98,0.82c0.75,0.21,1.95,0.49,3.6,0.86c10.14,2.47,15.21,7.28,15.21,14.45     c0,4.43-1.72,7.87-5.17,10.31C437.17,570.08,432.96,571.26,427.98,571.17z" fill="#000000"/>
			<path class="st0" d="M453.72,570.62v-47.95h21.03c4.66,0,8.59,1.6,11.78,4.79c3.2,3.2,4.79,7.03,4.79,11.51     c0,4.52-1.59,8.32-4.76,11.41c-3.17,3.08-7.11,4.65-11.82,4.69l-11.71,0.07v15.48H453.72z M463.03,546.92l11.1-0.07     c2.47,0,4.46-0.79,6-2.36c1.53-1.58,2.29-3.5,2.29-5.79c0-2.24-0.75-4.09-2.26-5.55c-1.51-1.46-3.52-2.19-6.03-2.19l-11.1,0.07     V546.92z" fill="#000000"/>
			<path class="st0" d="M543.75,570.62v-47.95h21.03c4.61,0,8.53,1.6,11.75,4.79c3.22,3.2,4.83,7.01,4.83,11.44     c0,3.2-0.92,6.11-2.77,8.73c-1.85,2.63-4.26,4.47-7.23,5.51l10.62,17.47h-9.86l-9.93-16.3h-9.11v16.3H543.75z M553.06,546.3     h11.51c2.19,0,4.05-0.74,5.58-2.23c1.53-1.48,2.29-3.32,2.29-5.51c0-2.15-0.73-3.95-2.19-5.41c-1.46-1.46-3.29-2.19-5.48-2.19     h-11.71V546.3z" fill="#000000"/>
			<path class="st0" d="M589.35,570.62v-47.95h34.46v8.49H598.6v11.3h22.47v8.36H598.6v11.23h25.21v8.56H589.35z" fill="#000000"/>
			<polygon class="st0" points="499.69,570.62 490.1,570.62 506.75,522.67 521.06,522.67 537.43,570.62 527.84,570.62      513.94,528.56    " fill="#000000"/>
		</g>
	</g>
	<g>
		<path class="st1" d="M302.41,480.07c-15.4,0-27.88,12.48-27.88,27.88v0c0,12.5,8.23,23.08,19.56,26.62v-37.76h57.38v19.46    c0,10.8,8.76,19.56,19.56,19.56l0,0v-55.77H302.41z" fill="#000000"/>
		<path class="st1" d="M351.47,545.42v37.76h-57.38v-19.46c0-10.8-8.76-19.56-19.56-19.56h0v55.77h68.62    c15.4,0,27.88-12.48,27.88-27.88v0C371.03,559.54,362.8,548.96,351.47,545.42z" fill="#000000"/>
	</g>
</g>
</svg>